{
	"asset":{
		"generator":"Khronos glTF Blender I/O v4.0.44",
		"version":"2.0"
	},
	"extensionsUsed":[
		"KHR_materials_specular",
		"KHR_materials_ior",
		"EXT_texture_webp"
	],
	"extensionsRequired":[
		"EXT_texture_webp"
	],
	"scene":0,
	"scenes":[
		{
			"name":"Scene",
			"nodes":[
				1
			]
		}
	],
	"nodes":[
		{
			"mesh":0,
			"name":"object_1.002",
			"rotation":[
				0.7071073651313782,
				0,
				0,
				0.7071062922477722
			],
			"scale":[
				2.6666665077209473,
				2.6666665077209473,
				39.999996185302734
			],
			"translation":[
				0,
				10.15000057220459,
				0
			]
		},
		{
			"children":[
				0
			],
			"mesh":1,
			"name":"Cube.002",
			"rotation":[
				0,
				-0.7071068286895752,
				0,
				0.7071068286895752
			],
			"scale":[
				0.30000001192092896,
				0.019999999552965164,
				0.30000001192092896
			],
			"translation":[
				0,
				-0.2029999941587448,
				0
			]
		}
	],
	"animations":[
		{
			"channels":[
				{
					"sampler":0,
					"target":{
						"node":1,
						"path":"translation"
					}
				}
			],
			"name":"CubeAction.001",
			"samplers":[
				{
					"input":8,
					"interpolation":"LINEAR",
					"output":9
				}
			]
		},
		{
			"channels":[
				{
					"sampler":0,
					"target":{
						"node":0,
						"path":"translation"
					}
				}
			],
			"name":"object_1.003Action.001",
			"samplers":[
				{
					"input":10,
					"interpolation":"STEP",
					"output":11
				}
			]
		}
	],
	"materials":[
		{
			"doubleSided":true,
			"extensions":{
				"KHR_materials_specular":{
					"specularFactor":0
				},
				"KHR_materials_ior":{
					"ior":1.4500000476837158
				}
			},
			"name":"textured_0.003",
			"pbrMetallicRoughness":{
				"baseColorTexture":{
					"index":0
				},
				"metallicFactor":0,
				"roughnessFactor":0.9467709064483643
			}
		},
		{
			"doubleSided":true,
			"name":"Material.001",
			"pbrMetallicRoughness":{
				"baseColorFactor":[
					0,
					0,
					1,
					1
				],
				"metallicFactor":0,
				"roughnessFactor":0.5
			}
		}
	],
	"meshes":[
		{
			"name":"object_1.002",
			"primitives":[
				{
					"attributes":{
						"POSITION":0,
						"NORMAL":1,
						"TEXCOORD_0":2
					},
					"indices":3,
					"material":0
				}
			]
		},
		{
			"name":"Cube.004",
			"primitives":[
				{
					"attributes":{
						"POSITION":4,
						"NORMAL":5,
						"TEXCOORD_0":6
					},
					"indices":7,
					"material":1
				}
			]
		}
	],
	"textures":[
		{
			"extensions":{
				"EXT_texture_webp":{
					"source":0
				}
			},
			"sampler":0
		}
	],
	"images":[
		{
			"mimeType":"image/webp",
			"name":"textured_0_uo1Vyan3 copia",
			"uri":"textured_0_uo1Vyan3%20copia.webp"
		}
	],
	"accessors":[
		{
			"bufferView":0,
			"componentType":5126,
			"count":109918,
			"max":[
				0.2053045928478241,
				0.29999563097953796,
				0.2301502525806427
			],
			"min":[
				-0.22627843916416168,
				-0.29274782538414,
				-0.42821159958839417
			],
			"type":"VEC3"
		},
		{
			"bufferView":1,
			"componentType":5126,
			"count":109918,
			"type":"VEC3"
		},
		{
			"bufferView":2,
			"componentType":5126,
			"count":109918,
			"type":"VEC2"
		},
		{
			"bufferView":3,
			"componentType":5125,
			"count":111024,
			"type":"SCALAR"
		},
		{
			"bufferView":4,
			"componentType":5126,
			"count":24,
			"max":[
				1,
				1,
				1
			],
			"min":[
				-1,
				-1,
				-1
			],
			"type":"VEC3"
		},
		{
			"bufferView":5,
			"componentType":5126,
			"count":24,
			"type":"VEC3"
		},
		{
			"bufferView":6,
			"componentType":5126,
			"count":24,
			"type":"VEC2"
		},
		{
			"bufferView":7,
			"componentType":5123,
			"count":36,
			"type":"SCALAR"
		},
		{
			"bufferView":8,
			"componentType":5126,
			"count":80,
			"max":[
				3.3333333333333335
			],
			"min":[
				0.041666666666666664
			],
			"type":"SCALAR"
		},
		{
			"bufferView":9,
			"componentType":5126,
			"count":80,
			"type":"VEC3"
		},
		{
			"bufferView":10,
			"componentType":5126,
			"count":2,
			"max":[
				3.3333333333333335
			],
			"min":[
				0.041666666666666664
			],
			"type":"SCALAR"
		},
		{
			"bufferView":11,
			"componentType":5126,
			"count":2,
			"type":"VEC3"
		}
	],
	"bufferViews":[
		{
			"buffer":0,
			"byteLength":1319016,
			"byteOffset":0,
			"target":34962
		},
		{
			"buffer":0,
			"byteLength":1319016,
			"byteOffset":1319016,
			"target":34962
		},
		{
			"buffer":0,
			"byteLength":879344,
			"byteOffset":2638032,
			"target":34962
		},
		{
			"buffer":0,
			"byteLength":444096,
			"byteOffset":3517376,
			"target":34963
		},
		{
			"buffer":0,
			"byteLength":288,
			"byteOffset":3961472,
			"target":34962
		},
		{
			"buffer":0,
			"byteLength":288,
			"byteOffset":3961760,
			"target":34962
		},
		{
			"buffer":0,
			"byteLength":192,
			"byteOffset":3962048,
			"target":34962
		},
		{
			"buffer":0,
			"byteLength":72,
			"byteOffset":3962240,
			"target":34963
		},
		{
			"buffer":0,
			"byteLength":320,
			"byteOffset":3962312
		},
		{
			"buffer":0,
			"byteLength":960,
			"byteOffset":3962632
		},
		{
			"buffer":0,
			"byteLength":8,
			"byteOffset":3963592
		},
		{
			"buffer":0,
			"byteLength":24,
			"byteOffset":3963600
		}
	],
	"samplers":[
		{
			"magFilter":9729,
			"minFilter":9987
		}
	],
	"buffers":[
		{
			"byteLength":3963624,
			"uri":"busto%20emilio.bin"
		}
	]
}
